<svg xmlns="http://www.w3.org/2000/svg" width="512" height="512" viewBox="0 0 512 512">
  <defs>
    <radialGradient id="bg" cx="50%" cy="50%" r="50%">
      <stop offset="0%" stop-color="#0f1623"/>
      <stop offset="100%" stop-color="#080c18"/>
    </radialGradient>
    <radialGradient id="glow" cx="50%" cy="50%" r="50%">
      <stop offset="0%" stop-color="#00d4ff" stop-opacity="0.6"/>
      <stop offset="100%" stop-color="#00d4ff" stop-opacity="0"/>
    </radialGradient>
  </defs>
  <rect width="512" height="512" rx="96" fill="url(#bg)"/>
  <circle cx="256" cy="240" r="160" fill="url(#glow)"/>
  <circle cx="256" cy="240" r="85" fill="none" stroke="#00d4ff" stroke-width="4" opacity="0.8"/>
  <circle cx="256" cy="240" r="128" fill="none" stroke="#00d4ff" stroke-width="2" opacity="0.3"/>
  <circle cx="256" cy="240" r="50" fill="none" stroke="#00d4ff" stroke-width="2" opacity="0.15"/>
  <circle cx="256" cy="240" r="14" fill="#00d4ff"/>
  <!-- Map pin markers -->
  <circle cx="200" cy="210" r="10" fill="#f59e0b"/>
  <circle cx="310" cy="220" r="10" fill="#ef4444"/>
  <circle cx="235" cy="290" r="10" fill="#22c55e"/>
  <circle cx="295" cy="270" r="9" fill="#7c3aed"/>
  <circle cx="270" cy="195" r="7" fill="#06b6d4"/>
  <circle cx="215" cy="260" r="7" fill="#f59e0b" opacity="0.7"/>
  <!-- Crosshair lines -->
  <line x1="256" y1="140" x2="256" y2="180" stroke="#00d4ff" stroke-width="2.5" opacity="0.5"/>
  <line x1="256" y1="300" x2="256" y2="340" stroke="#00d4ff" stroke-width="2.5" opacity="0.5"/>
  <line x1="140" y1="240" x2="180" y2="240" stroke="#00d4ff" stroke-width="2.5" opacity="0.5"/>
  <line x1="332" y1="240" x2="372" y2="240" stroke="#00d4ff" stroke-width="2.5" opacity="0.5"/>
  <!-- Text -->
  <text x="256" y="430" text-anchor="middle" fill="#00d4ff" font-family="system-ui,sans-serif" font-size="44" font-weight="800" letter-spacing="3">PHENOMAP</text>
  <text x="256" y="462" text-anchor="middle" fill="#64748b" font-family="system-ui,sans-serif" font-size="16" font-weight="500" letter-spacing="4">UAP INTELLIGENCE</text>
</svg>
